<?xml version="1.0" encoding="utf-8"?>
<!-- Generator: Adobe Illustrator 24.0.1, SVG Export Plug-In . SVG Version: 6.00 Build 0)  -->
<svg version="1.1" id="Camada_1" xmlns="http://www.w3.org/2000/svg" xmlns:xlink="http://www.w3.org/1999/xlink" x="0px" y="0px"
	 viewBox="0 0 350 350" style="enable-background:new 0 0 350 350;" xml:space="preserve">
<style type="text/css">
	.st0{clip-path:url(#SVGID_2_);}
	.st1{opacity:0.2;}
	.st2{opacity:0.2;fill:#3F3D56;enable-background:new    ;}
	.st3{opacity:0.2;fill:#FF962B;enable-background:new    ;}
	.st4{opacity:0.1;enable-background:new    ;}
	.st5{fill:url(#SVGID_3_);}
	.st6{opacity:0.9;}
	.st7{opacity:0.9;fill:#E5E7EB;enable-background:new    ;}
	.st8{opacity:0.9;fill:#FFFFFF;enable-background:new    ;}
	.st9{fill:#ECECF3;}
	.st10{fill:#FF962B;}
	.st11{opacity:0.4;}
	.st12{opacity:0.4;fill:#FF962B;enable-background:new    ;}
	.st13{fill:#D6D8E0;}
	.st14{fill:url(#SVGID_4_);}
	.st15{fill:#FFFFFF;}
	.st16{opacity:0.5;}
	.st17{opacity:0.5;fill:#FF962B;enable-background:new    ;}
	.st18{fill:url(#SVGID_5_);}
	.st19{fill:#3F3D56;}
	.st20{fill:#A0616A;}
	.st21{fill:#2D293D;}
	.st22{fill:#F86D70;}
	.st23{opacity:0.1;}
</style>
<g>
	<defs>
		<rect id="SVGID_1_" x="20.1" width="309.8" height="350"/>
	</defs>
	<clipPath id="SVGID_2_">
		<use xlink:href="#SVGID_1_"  style="overflow:visible;"/>
	</clipPath>
	<g class="st0">
		<g class="st1">
			<path class="st2" d="M250.2,319.4c-0.3,0.5-0.6,1-1,1.5c-3.2-2.2-6.4-4.4-9.7-6.6l0.2-0.4c0.8-1.5,1.9-2.7,3.3-3.6
				c1.8-1.1,3.9-1.4,5.6-0.5c1.7,0.9,2.6,2.7,2.7,4.9C251.4,316.3,251,318,250.2,319.4z"/>
			<path class="st2" d="M254.7,311.1c2-3.8,1.3-8.1-1.6-9.6c-2.9-1.5-6.9,0.3-8.9,4.1c-2,3.8-1.3,8.1,1.6,9.6
				C248.7,316.7,252.7,314.9,254.7,311.1z"/>
			<path class="st2" d="M259.1,302.7c2-3.8,1.3-8.1-1.6-9.6c-2.9-1.5-6.9,0.3-8.9,4.1c-2,3.8-1.3,8.1,1.6,9.6
				C253.1,308.3,257.1,306.5,259.1,302.7z"/>
			<path class="st2" d="M263.5,294.3c2-3.8,1.3-8.1-1.6-9.6c-2.9-1.5-6.9,0.3-8.9,4.1c-2,3.8-1.3,8.1,1.6,9.6
				C257.6,299.9,261.5,298.1,263.5,294.3z"/>
			<path class="st2" d="M268,285.9c2-3.8,1.3-8.1-1.6-9.6s-6.9,0.3-8.9,4.1c-2,3.8-1.3,8.1,1.6,9.6C262,291.6,266,289.7,268,285.9z"
				/>
			<path class="st3" d="M273.5,215.3c-0.2-1.3-0.4-2.6-0.5-3.9l15,5l-15-7.8c0.2-3.9,1.2-7.6,3-11.1c1.7-3.5,4.1-6.5,7.1-9l14.5,21
				l-11.3-23.3c3.3-2.1,7-3.4,10.9-4c3.9-0.6,7.8-0.4,11.6,0.7c3.8,1,7.3,2.8,10.3,5.2c3.1,2.4,5.6,5.5,7.4,8.9
				c1.8,3.4,2.9,7.2,3.2,11.1c0.3,3.9-0.2,7.8-1.5,11.5c-1.3,3.7-3.3,7.1-5.9,9.9c-2.6,2.9-5.8,5.2-9.4,6.8c0.4,2,0.5,4.1,0.5,6.1
				l-22.8-0.2l22.4,3.7c-0.8,4.7-2.7,9.1-5.6,12.8c-2.9,3.7-6.7,6.7-11,8.6c1,5.2,0.4,10.7-1.6,15.6c-2,5-5.3,9.2-9.6,12.4
				s-9.4,5-14.7,5.4s-10.6-0.7-15.3-3.2c-4.7-2.5-8.6-6.3-11.3-10.9c-2.7-4.6-4-9.9-3.8-15.2c0.2-5.3,1.9-10.5,4.9-14.9
				c3-4.4,7.2-7.9,12-10.1c-1.1-6.3-0.1-12.7,2.9-18.4C262.9,222.4,267.7,217.9,273.5,215.3L273.5,215.3z"/>
			<path class="st4" d="M310.1,254.6c-3,5.6-7.8,10.1-13.6,12.7c1,5.2,0.4,10.7-1.6,15.6c-2,5-5.3,9.2-9.6,12.4
				c-4.3,3.1-9.4,5-14.7,5.4s-10.6-0.7-15.3-3.2c-4.7-2.5-8.6-6.3-11.3-10.9c-2.7-4.6-4-9.9-3.8-15.2c0.2-5.3,1.9-10.5,4.9-14.9
				c3-4.4,7.2-7.9,12-10.1C256,240.3,311.6,251.8,310.1,254.6z"/>
		</g>
		<g class="st1">
			<path class="st2" d="M119,283.3c0.3,1.1,0.6,2.2,1.1,3.2c7-2.7,14.1-5.3,21.3-7.7c-0.1-0.3-0.1-0.6-0.2-0.9
				c-0.7-3.1-2.3-6-4.5-8.3c-2.9-3-6.6-4.4-10.2-3.5c-3.6,0.9-6.2,3.9-7.4,7.8C118.2,276.9,118.2,280.2,119,283.3z"/>
			<path class="st2" d="M129.3,277.3c6.1-1.5,9.5-9.2,7.5-17.2c-2-8-8.5-13.3-14.6-11.8c-6.1,1.5-9.5,9.2-7.5,17.2
				C116.6,273.5,123.2,278.8,129.3,277.3z"/>
			<path class="st2" d="M125,259.6c6.1-1.5,9.5-9.2,7.5-17.2c-2-8-8.5-13.3-14.6-11.8c-6.1,1.5-9.5,9.2-7.5,17.2
				C112.3,255.8,118.8,261.1,125,259.6z"/>
			<path class="st2" d="M120.6,241.8c6.1-1.5,9.5-9.2,7.5-17.2c-2-8-8.5-13.3-14.6-11.8c-6.1,1.5-9.5,9.2-7.5,17.2
				S114.5,243.3,120.6,241.8z"/>
			<path class="st2" d="M116.3,224.1c6.1-1.5,9.5-9.2,7.5-17.2c-2-8-8.5-13.3-14.6-11.8c-6.1,1.5-9.5,9.2-7.5,17.2
				C103.6,220.3,110.2,225.6,116.3,224.1z"/>
			<path class="st3" d="M124.6,77.9c1-2.3,1.9-4.7,2.6-7.1l-30.3,2.3l31.6-7.5c1.4-7.3,1.3-14.9-0.3-22.1c-1.6-7.3-4.7-14.2-9-20.2
				l-37,32.3l32-38.2C109.1,12,102.9,7.7,96,4.8C89,1.9,81.6,0.5,74.1,0.6c-7.5,0.1-14.9,1.8-21.7,4.9c-6.8,3.1-13,7.6-18,13.1
				S25.4,30.7,23,37.8c-2.4,7.1-3.3,14.6-2.7,22.1c0.6,7.5,2.8,14.8,6.4,21.4c3.6,6.6,8.4,12.4,14.4,17c-1.6,3.6-2.9,7.3-3.7,11.2
				L80,119.9l-43.6-3.7c-0.8,9.1,0.7,18.2,4.3,26.6c3.6,8.4,9.3,15.7,16.4,21.3c-4.3,9.3-5.8,19.7-4.4,29.9
				c1.4,10.2,5.5,19.8,12.1,27.7c6.5,7.9,15.2,13.8,24.9,17c9.7,3.2,20.2,3.7,30.2,1.2c10-2.4,19.1-7.6,26.2-15
				c7.2-7.4,12.1-16.6,14.3-26.6c2.2-10,1.5-20.5-2-30.1c-3.5-9.7-9.6-18.1-17.7-24.5c5.1-11.2,6.3-23.7,3.4-35.6
				C141.1,96.1,134.3,85.5,124.6,77.9z"/>
			<path class="st4" d="M37.7,134c2.9,11.9,9.7,22.5,19.4,30.1c-4.3,9.3-5.8,19.7-4.4,29.9s5.5,19.8,12.1,27.7
				c6.5,7.9,15.2,13.8,24.9,17c9.7,3.2,20.2,3.7,30.2,1.2c10-2.4,19.1-7.6,26.2-15c7.2-7.4,12.1-16.6,14.3-26.6
				c2.2-10,1.5-20.5-2-30.1c-3.5-9.7-9.6-18.1-17.7-24.5C145.6,132.9,36.3,128,37.7,134z"/>
		</g>
		
			<linearGradient id="SVGID_3_" gradientUnits="userSpaceOnUse" x1="190.1009" y1="12.9159" x2="190.1009" y2="350.9772" gradientTransform="matrix(1 0 0 -1 0 351)">
			<stop  offset="0" style="stop-color:#808080;stop-opacity:0.25"/>
			<stop  offset="0.54" style="stop-color:#808080;stop-opacity:0.12"/>
			<stop  offset="1" style="stop-color:#808080;stop-opacity:0.1"/>
		</linearGradient>
		<path class="st5" d="M275.2,76.7h-1V21.9C274.2,9.8,264.3,0,252,0H127.6c-12.3,0-22.2,9.8-22.2,21.9v22.7h-0.1h-0.2
			c-0.3,0-0.7,0.1-0.9,0.4c-0.2,0.2-0.4,0.6-0.4,0.9v10.9c0,0.3,0.1,0.7,0.4,0.9c0.2,0.2,0.6,0.4,0.9,0.4h0.2h0.1v11.2H105
			c-0.2,0-0.3,0-0.5,0.1c-0.2,0.1-0.3,0.2-0.4,0.3c-0.1,0.1-0.2,0.3-0.3,0.4c-0.1,0.2-0.1,0.3-0.1,0.5v20.9c0,0.3,0.1,0.7,0.4,0.9
			c0.2,0.2,0.6,0.4,0.9,0.4h0.4v8.2H105c-0.2,0-0.3,0-0.5,0.1c-0.2,0.1-0.3,0.2-0.4,0.3c-0.1,0.1-0.2,0.3-0.3,0.4
			c-0.1,0.2-0.1,0.3-0.1,0.5v21.1c0,0.2,0,0.3,0.1,0.5c0.1,0.2,0.2,0.3,0.3,0.4c0.1,0.1,0.3,0.2,0.4,0.3c0.2,0.1,0.3,0.1,0.5,0.1
			h0.3v191.6c0,12.1,9.9,21.9,22.2,21.9H252c12.3,0,22.2-9.8,22.2-21.9V117.7h1c0.3,0,0.7-0.1,0.9-0.4c0.2-0.2,0.4-0.6,0.4-0.9V78
			c0-0.3-0.1-0.7-0.4-0.9C275.9,76.8,275.6,76.7,275.2,76.7z"/>
		<g class="st6">
			<path class="st7" d="M273.2,78h-2.8c-0.6,0-1,0.5-1,1v38.4c0,0.6,0.5,1,1,1h2.8c0.6,0,1-0.5,1-1V79.1
				C274.3,78.5,273.8,78,273.2,78z"/>
			<path class="st7" d="M108,46.3h-0.7c-0.6,0-1,0.5-1,1v11.2c0,0.6,0.5,1,1,1h0.7c0.6,0,1-0.5,1-1V47.4
				C109,46.8,108.5,46.3,108,46.3z"/>
			<path class="st7" d="M108.2,70.7h-1c-0.6,0-1,0.5-1,1v21.1c0,0.6,0.5,1,1,1h1c0.6,0,1-0.5,1-1V71.8
				C109.2,71.2,108.8,70.7,108.2,70.7z"/>
			<path class="st7" d="M108.1,102h-0.9c-0.6,0-1,0.5-1,1v21.3c0,0.6,0.5,1,1,1h0.9c0.6,0,1-0.5,1-1v-21.3
				C109.1,102.5,108.7,102,108.1,102z"/>
			<path class="st8" d="M254.3,2.3H125.6c-9.8,0-17.8,8-17.8,17.8v298.3c0,9.8,8,17.8,17.8,17.8h128.7c9.8,0,17.8-8,17.8-17.8V20.1
				C272,10.3,264.1,2.3,254.3,2.3z"/>
			<path class="st7" d="M195.2,12.3h-19.4c-1,0-1.8,0.8-1.8,1.8v1.1c0,1,0.8,1.8,1.8,1.8h19.4c1,0,1.8-0.8,1.8-1.8V14
				C197,13.1,196.2,12.3,195.2,12.3z"/>
			<path class="st7" d="M203.1,17.2c1.5,0,2.6-1.2,2.6-2.6c0-1.5-1.2-2.6-2.6-2.6c-1.5,0-2.6,1.2-2.6,2.6
				C200.5,16.1,201.7,17.2,203.1,17.2z"/>
		</g>
		<path class="st9" d="M248.8,11H230v2.3c0,2.8-1.1,5.6-3.1,7.6c-2,2-4.7,3.1-7.6,3.1h-59.9c-2.8,0-5.6-1.1-7.6-3.1
			c-2-2-3.1-4.7-3.1-7.6V11H131c-3.5,0-6.8,1.4-9.2,3.8c-2.4,2.4-3.8,5.8-3.8,9.2v290.4c0,3.5,1.4,6.8,3.8,9.2
			c2.4,2.4,5.8,3.8,9.2,3.8h117.9c3.5,0,6.8-1.4,9.2-3.8c2.4-2.4,3.8-5.8,3.8-9.2V24c0-3.5-1.4-6.8-3.8-9.2
			C255.6,12.4,252.3,11,248.8,11z"/>
		<path class="st10" d="M59.9,347.8c14.4,0,26.1-2,26.1-4.4c0-2.4-11.7-4.4-26.1-4.4s-26.1,2-26.1,4.4
			C33.8,345.8,45.5,347.8,59.9,347.8z"/>
		<path class="st10" d="M70.6,336.2c1.1-1,2.2-2.3,2.5-3.7c0.3-1.5-0.3-3.3-1.7-3.8c-1.6-0.6-3.3,0.5-4.6,1.6
			c-1.3,1.1-2.8,2.4-4.5,2.2c0.9-0.8,1.5-1.8,1.9-2.9c0.4-1.1,0.4-2.3,0.2-3.5c-0.1-0.5-0.3-0.9-0.6-1.3c-0.9-0.9-2.5-0.5-3.5,0.2
			c-3.4,2.4-4.3,6.9-4.3,11.1c-0.3-1.5-0.1-3-0.1-4.6c0-1.5-0.4-3.2-1.7-4c-0.8-0.4-1.7-0.6-2.6-0.6c-1.5-0.1-3.2,0.1-4.2,1.2
			c-1.3,1.4-1,3.7,0.2,5.2c1.1,1.5,2.8,2.5,4.4,3.5c1.2,0.8,2.4,1.7,3.1,3c0.1,0.2,0.2,0.3,0.2,0.5h9.5
			C66.9,339.1,68.9,337.8,70.6,336.2z"/>
		<g class="st11">
			<path class="st12" d="M302.6,321.6c8.2,0,14.9-1.1,14.9-2.5c0-1.4-6.7-2.5-14.9-2.5s-14.9,1.1-14.9,2.5
				C287.7,320.5,294.3,321.6,302.6,321.6z"/>
			<path class="st12" d="M308.7,315c0.7-0.6,1.2-1.3,1.4-2.1c0.2-0.9-0.2-1.9-1-2.2c-0.9-0.3-1.9,0.3-2.6,0.9
				c-0.7,0.6-1.6,1.4-2.5,1.2c0.5-0.5,0.9-1,1.1-1.7c0.2-0.6,0.2-1.3,0.1-2c0-0.3-0.2-0.5-0.3-0.7c-0.5-0.5-1.4-0.3-2,0.1
				c-1.9,1.4-2.5,4-2.5,6.3c-0.2-0.8,0-1.7,0-2.6c0-0.9-0.2-1.8-1-2.3c-0.5-0.2-1-0.4-1.5-0.3c-0.9,0-1.8,0.1-2.4,0.7
				c-0.7,0.8-0.5,2.1,0.1,3c0.6,0.9,1.6,1.4,2.5,2c0.7,0.4,1.3,1,1.8,1.7c0.1,0.1,0.1,0.2,0.1,0.3h5.4
				C306.6,316.7,307.7,315.9,308.7,315z"/>
		</g>
		<g class="st11">
			<path class="st12" d="M74.8,293.4c8.2,0,14.9-1.1,14.9-2.5c0-1.4-6.7-2.5-14.9-2.5c-8.2,0-14.9,1.1-14.9,2.5
				C60,292.3,66.6,293.4,74.8,293.4z"/>
			<path class="st12" d="M81,286.7c0.7-0.6,1.2-1.3,1.4-2.1c0.2-0.8-0.2-1.9-1-2.2c-0.9-0.3-1.9,0.3-2.6,0.9
				c-0.7,0.6-1.6,1.4-2.5,1.2c0.5-0.5,0.9-1,1.1-1.7c0.2-0.6,0.3-1.3,0.1-2c0-0.3-0.2-0.5-0.3-0.7c-0.5-0.5-1.4-0.3-2,0.1
				c-1.9,1.4-2.5,4-2.5,6.3c-0.2-0.8,0-1.7,0-2.6c0-0.9-0.2-1.8-1-2.3c-0.5-0.2-1-0.4-1.5-0.4c-0.9,0-1.8,0.1-2.4,0.7
				c-0.7,0.8-0.5,2.1,0.1,3c0.6,0.9,1.6,1.4,2.5,2c0.7,0.4,1.3,1,1.8,1.7c0.1,0.1,0.1,0.2,0.1,0.3h5.4C78.8,288.4,80,287.7,81,286.7
				z"/>
		</g>
		<path class="st13" d="M152.3,35.1H129v23.3h23.3V35.1z"/>
		<path class="st13" d="M218.2,36.8h-48.8v4.4h48.8V36.8z"/>
		<path class="st13" d="M249.8,44.5h-80.3V49h80.3V44.5z"/>
		<path class="st13" d="M249.8,52.3h-80.3v4.4h80.3V52.3z"/>
		<path class="st13" d="M152.4,77.8h-23.3v23.3h23.3V77.8z"/>
		<path class="st13" d="M218.4,79.5h-48.8v4.4h48.8V79.5z"/>
		<path class="st13" d="M249.9,87.2h-80.3v4.4h80.3V87.2z"/>
		<path class="st13" d="M249.9,95h-80.3v4.4h80.3V95z"/>
		<path class="st13" d="M152.6,120.5h-23.3v23.3h23.3V120.5z"/>
		<path class="st13" d="M218.5,122.1h-48.8v4.4h48.8V122.1z"/>
		<path class="st13" d="M250.1,129.9h-80.3v4.4h80.3V129.9z"/>
		<path class="st13" d="M250.1,137.6h-80.3v4.4h80.3V137.6z"/>
		<path class="st13" d="M152.8,163.1h-23.3v23.3h23.3V163.1z"/>
		<path class="st13" d="M218.7,164.8H170v4.4h48.8V164.8z"/>
		<path class="st13" d="M250.3,172.6H170v4.4h80.3V172.6z"/>
		<path class="st13" d="M250.3,180.3H170v4.4h80.3V180.3z"/>
		<path class="st13" d="M153,205.8h-23.3v23.3H153V205.8z"/>
		<path class="st13" d="M218.9,207.5h-48.8v4.4h48.8V207.5z"/>
		<path class="st13" d="M250.5,215.2h-80.3v4.4h80.3V215.2z"/>
		<path class="st13" d="M250.5,223h-80.3v4.4h80.3V223z"/>
		<path class="st13" d="M153.1,248.5h-23.3v23.3h23.3V248.5z"/>
		<path class="st13" d="M219.1,250.2h-48.8v4.4h48.8V250.2z"/>
		<path class="st13" d="M250.7,257.9h-80.3v4.4h80.3V257.9z"/>
		<path class="st13" d="M250.7,265.7h-80.3v4.4h80.3V265.7z"/>
		<path class="st13" d="M153.3,291.2h-23.3v23.3h23.3V291.2z"/>
		<path class="st13" d="M219.3,292.8h-48.8v4.4h48.8V292.8z"/>
		<path class="st13" d="M250.8,300.6h-80.3v4.4h80.3V300.6z"/>
		<path class="st13" d="M250.8,308.4h-80.3v4.4h80.3V308.4z"/>
		
			<linearGradient id="SVGID_4_" gradientUnits="userSpaceOnUse" x1="189.9118" y1="-16493.6426" x2="189.9118" y2="-11153.5986" gradientTransform="matrix(1 0 0 -1 0 351)">
			<stop  offset="0" style="stop-color:#808080;stop-opacity:0.25"/>
			<stop  offset="0.54" style="stop-color:#808080;stop-opacity:0.12"/>
			<stop  offset="1" style="stop-color:#808080;stop-opacity:0.1"/>
		</linearGradient>
		<path class="st14" d="M289.1,105.3H90.7v49.3h198.4V105.3z"/>
		<path class="st15" d="M288.5,106.4H91.8v47.1h196.7V106.4z"/>
		<path class="st10" d="M153.1,118.3h-23.3v23.3h23.3V118.3z"/>
		<g class="st16">
			<path class="st17" d="M219,120h-48.8v4.4H219V120z"/>
			<path class="st17" d="M250.6,127.8h-80.3v4.4h80.3V127.8z"/>
			<path class="st17" d="M250.6,135.5h-80.3v4.4h80.3V135.5z"/>
		</g>
		
			<linearGradient id="SVGID_5_" gradientUnits="userSpaceOnUse" x1="29818.9375" y1="103.3872" x2="40979.6875" y2="103.3872" gradientTransform="matrix(1 0 0 -1 0 351)">
			<stop  offset="0" style="stop-color:#808080;stop-opacity:0.25"/>
			<stop  offset="0.54" style="stop-color:#808080;stop-opacity:0.12"/>
			<stop  offset="1" style="stop-color:#808080;stop-opacity:0.1"/>
		</linearGradient>
		<path class="st18" d="M161.4,148.4c-1.2-1.2-3.3-1.6-4.8-0.7c-1.2,0.7-1.8,2-2.4,3.2c-0.9,1.8-2.1,3.5-2.5,5.5
			c-1.1,5.4-5.4,9.6-7.1,14.9c-0.6,1.9-0.9,3.9-1.9,5.6c-0.5,0.7-1,1.5-1.5,2.1c-2.2,2.8-4.2,5.9-5.9,9c-1,0.2-1.9,1-2.7,1.7
			c-1.1,0.8-2.3,1.4-3.6,1.7c-0.5,0.1-1,0.2-1.5,0.5c-0.6,0.5-0.7,1.5-1.2,2.1c-0.4,0.4-0.8,0.7-1.4,0.9c0-0.2,0-0.3,0-0.5
			c0-0.8,0-1.7,0-2.5c1.5-1.7,2.3-3.9,2.3-6.2c0-2.3-0.8-4.5-2.3-6.2c0-1.3,0.2-2.6,0.5-3.9c0.2-0.6,0.1-1.4-0.4-1.8
			c-0.3-0.2-0.6-0.3-0.8-0.5c-0.4-0.3-0.7-0.7-0.9-1.2c-0.7-1-1.7-1.6-2.8-1.9c-1.1-0.3-2.3-0.2-3.4,0.3c-1.6,0.9-2.6,2.6-4.1,3.8
			c-0.7,0.6-1.6,1.1-2.4,1.7c-1.5,1.3-2.6,3-3,5c-0.5,1.9-0.8,3.9-0.8,5.9c-0.1,0.6-0.1,1.2,0.1,1.8c0.1,0.5,0.4,1,0.7,1.4
			c1.4,2.3,3.3,4.1,5.7,5.4c0,0.1,0,0.2,0,0.4c0,0.2-0.1,0.4-0.1,0.5l-0.3-0.1c-1-0.2-2-0.2-2.9-0.7c-1.5-0.8-1.9-2.9-3.4-3.8
			c-0.1-0.1-0.2-0.1-0.4-0.2c-0.1-2.6-0.6-5.2-1.5-7.6c-0.4-1.2-0.9-2.4-0.9-3.6c0.1-1.2,0.6-2.2,1.1-3.3c1.7-3.6,2.9-7.4,4.1-11.2
			c0.8-2.4,1.5-4.8,2.3-7.2c0.7-0.6,1.4-1.2,2-1.9c1.2-1.4,2-3.1,2.3-5c0.1-0.9,0.1-1.9-0.1-2.8c-0.2-0.9-0.6-1.8-1.2-2.5
			c-0.2-0.4-0.6-0.7-0.9-0.9c-0.4-0.2-0.8-0.4-1.2-0.4c-0.4,0-0.8,0.1-1.1,0.2c-0.3,0.2-0.7,0.4-0.9,0.7c-0.8,0.9-1.3,1.9-1.7,2.9
			c-0.7,1.8-1.5,3.6-1.4,5.5c0.1,1.6,0.7,3.4-0.3,4.6c-3,4.2-5.3,9.1-7.7,13.7c-0.6,1.1-1.1,2.3-1.6,3.4c-0.6,1.9-0.9,3.9-0.8,5.9
			c0,3.8,0.5,7.5,1,11.2c0.2,1.7,0.5,3.5,1.3,4.9c-0.5,1.8-0.8,3.7-0.8,5.5c0,0.4,0,0.9,0.2,1.3c0.3,0.5,0.6,0.9,1,1.3
			c0.5,0.6,0.9,1.3,1.2,2.1c0.2,0.8,0.3,1.6,0.2,2.4c-0.1,1.5,0,3,0.4,4.5c0.9,4,1.8,8.1,2.6,12.2c0.2,0.8,0.2,1.5,0.2,2.3
			c-0.1,1.1-0.8,2.2-0.6,3.3c0.1,0.5,0.2,1,0.3,1.6c0,0.4-0.1,0.8-0.3,1.2c-1,3-3.8,9.9-3.8,13.1l0.7-0.2c-0.7,4.2-2.5,8.1-3.4,12.3
			c-0.6,3-0.9,6.1-0.8,9.2c0.1,1.4,0,2.8-0.1,4.1c-0.1,1.2-0.5,2.4-0.6,3.6c-0.2,1.6-0.3,3.3-0.2,4.9c0,2.6,0.1,5.2,0.5,7.7
			c0.7,4.4-0.5,8.7-0.9,13.1c-0.2,3.1-0.5,6.2-1,9.2c-0.3,1.3-0.6,2.6-0.7,3.9c-0.5,3.9,0.2,7.8-0.6,11.6c-0.4,1.8-1.1,3.8-0.1,5.3
			c0.3,0.5,0.8,0.9,1.1,1.3c0.2,0.2,0.3,0.5,0.4,0.8c0.1,0.3,0,0.6-0.1,0.8c-0.2,0.4-0.7,0.7-0.8,1.1c-0.2,0.7,0.6,1.3,1.2,1.6
			l0.2,0.1c0,0.2,0,0.5,0,0.7c0.1,0.2,0.2,0.5,0.3,0.6c0.4,0.4,0.9,0.6,1.4,0.7l8.6,2.6c1.9,0.6,4,1.2,5.9,0.7
			c0,0.3,0.2,0.5,0.3,0.7c0.4,0.4,0.9,0.6,1.4,0.7l8.5,2.6c2.2,0.7,4.6,1.3,6.7,0.4c0.6-0.2,1.1-0.6,1.5-1.2
			c0.3-0.5,0.6-1.1,0.7-1.6c0.1-0.6,0.1-1.2-0.1-1.8c-0.1-0.6-0.4-1.1-0.8-1.5c-0.6-0.4-1.3-0.6-2-0.7c-0.6,0-1.2-0.2-1.7-0.5
			c-0.2-0.1-0.3-0.2-0.4-0.4c0.5-0.5,1-1,1.4-1.5c-0.4-0.1-0.5-0.7-0.5-1.1c-0.5-5.8,1.6-11.5,2.5-17.2c0.4-2.9,0.5-5.8,0.2-8.7
			c-0.1-1.1-0.3-2.2-0.3-3.3c-0.2-5.7,2.5-11.3,2.4-17c0-2.7,1.4-5.3,2.1-7.9c0.6-2.3,0.6-4.7,0.6-7.1l0.1-18.8c0-2.5,0-5.1-0.8-7.5
			c-0.4-1.3-0.5-2.7-0.3-4.1c2.3-1,4.5-2.5,7-2.3c0.7-1.8-0.1-7.6-0.7-9.4c-2.4-7-2.9-14.5-1.4-21.7c0.6-2.6-0.2-5.3,0.4-7.9
			c0.1-0.6,0.3-1.2,0.7-1.7c0.2-0.3,0.4-0.5,0.7-0.6c0.3-0.1,0.6-0.2,0.9-0.2c0-1.6,0-3.2-0.1-4.8c1-0.8,1.9-1.8,2.5-2.9
			c1.4-2.3,2.1-4.8,3.1-7.3c1.7-4.4,4-8.5,5.9-12.8c1.9-4.3,2.1-9,3.6-13.4c0.8-2.4,2.6-4.5,4.9-5.6c0.9-0.5,1.9-0.8,2.5-1.5
			c0.5-0.6,0.8-1.4,0.9-2.2c0.1-0.9,0.1-1.8-0.2-2.6S162,149,161.4,148.4z M108.1,336.6c0.2-0.2,0.4-0.4,0.5-0.6
			c-0.6-0.1-1.3-0.5-1.3-1.1c0-0.6,0.2-1.2,0.4-1.7c0.3-1,0.3-2,0.1-3c-0.1-0.7-0.4-1.4-0.5-2.1c-0.1-0.8-0.2-1.6-0.3-2.4
			c-0.2-2.8-0.8-5.6-1.7-8.4c-0.8-2.6,0.3-5.3,0.6-8.1c0.1-1.3,0.1-2.6,0.5-3.9c0.3-0.7,0.7-1.4,1-2.1c0.6-1.7,0.3-3.6-0.1-5.3
			c2.7-4.9,3.6-10.7,4.6-16.2c0.6-3.1,1.1-6.2,1.7-9.3c0.3-1.4,0.5-2.8,1.4-3.9c0.9,4.1,1.2,8.3,1,12.5c-0.1,1.2-0.1,2.4,0,3.6
			c0.2,1.3,0.8,2.6,1.1,3.9c0.7,2.9,0.3,5.9,0.5,8.9c0.1,1.2,0.2,2.4,0.3,3.6c0.2,5.3-1.5,10.4-3.3,15.4c-1.1,3.1-1.3,6.5-1.8,9.7
			c-0.5,3.1-1,6.1-1.2,9.2c-0.1,0.9-0.1,1.9-0.2,2.9c-0.3-0.1-0.6-0.1-0.9-0.1c-0.6,0-1.2-0.2-1.7-0.5
			C108.5,337.4,108.2,337,108.1,336.6z"/>
		<path class="st19" d="M126.8,342.9c0.7,0,1.4,0.2,2,0.6c0.4,0.4,0.7,0.9,0.8,1.5c0.2,0.6,0.2,1.2,0.1,1.8
			c-0.1,0.6-0.3,1.1-0.7,1.6c-0.4,0.5-0.9,0.9-1.5,1.1c-2.1,0.9-4.5,0.3-6.7-0.4l-8.6-2.6c-0.5-0.1-1-0.4-1.4-0.7
			c-0.2-0.3-0.4-0.7-0.4-1.1c0-0.4,0.1-0.8,0.3-1.1c0.5-0.6,1.1-1.1,1.8-1.5c2.7-1.3,5.7-1.6,8.7-1.7c1.1,0,2.2-0.3,2.9,0.6
			c0.4,0.5,0.3,0.9,0.9,1.3C125.6,342.7,126.2,342.8,126.8,342.9z"/>
		<path class="st19" d="M110.5,338.1c0.7,0,1.4,0.2,2,0.6c0.4,0.4,0.7,0.9,0.8,1.5c0.2,0.6,0.2,1.2,0.1,1.8
			c-0.1,0.6-0.3,1.1-0.7,1.6c-0.4,0.5-0.9,0.9-1.5,1.2c-2.1,0.9-4.5,0.2-6.7-0.4l-8.6-2.6c-0.5-0.1-1-0.4-1.4-0.7
			c-0.2-0.3-0.4-0.7-0.4-1.1c0-0.4,0.1-0.8,0.3-1.1c0.5-0.6,1.1-1.1,1.8-1.5c2.7-1.3,5.7-1.6,8.6-1.7c1.1,0,2.2-0.3,2.9,0.6
			c0.4,0.5,0.3,0.9,0.9,1.3C109.3,338,109.9,338.1,110.5,338.1z"/>
		<path class="st19" d="M118,244.8c-5.1-0.5-10.2-0.7-15.3-0.4c-0.3,0-0.7,0-1,0.2c-1.1,0.5-1.3,1.9-1.4,3.1
			c-0.4,4.9-2.6,9.4-3.6,14.2c-0.6,3-0.9,6.1-0.8,9.1c0.1,1.4,0,2.7-0.1,4.1c-0.1,1.2-0.5,2.4-0.6,3.6c-0.2,1.6-0.3,3.3-0.2,4.9
			c0,2.6,0.1,5.1,0.5,7.7c0.7,4.3-0.5,8.7-0.9,13.1c-0.2,3.1-0.5,6.1-1,9.2c-0.3,1.3-0.6,2.5-0.7,3.8c-0.5,3.8,0.2,7.8-0.6,11.6
			c-0.4,1.8-1.1,3.8-0.1,5.3c0.3,0.5,0.8,0.8,1.1,1.3c0.2,0.2,0.3,0.5,0.4,0.8s0,0.6-0.1,0.8c-0.2,0.4-0.7,0.7-0.8,1.1
			c-0.2,0.7,0.6,1.3,1.2,1.6c4.9,2.2,11.3,0.7,14.6-3.6c-0.6-0.1-1.3-0.5-1.3-1.1c0-0.6,0.2-1.2,0.4-1.7c0.3-1,0.3-2,0.1-3
			c-0.1-0.7-0.4-1.4-0.5-2.1c-0.1-0.8-0.2-1.6-0.3-2.3c-0.2-2.8-0.8-5.6-1.7-8.3c-0.8-2.6,0.3-5.3,0.6-8c0.1-1.3,0.1-2.6,0.5-3.8
			c0.3-0.7,0.7-1.4,1-2.1c0.6-1.7,0.3-3.5-0.1-5.3c2.7-4.9,3.6-10.7,4.6-16.1c0.6-3.1,1.1-6.1,1.7-9.2c0.3-1.4,0.5-2.8,1.4-3.9
			c0.9,4.1,1.2,8.2,1,12.4c-0.1,1.2-0.1,2.4,0,3.6c0.2,1.3,0.8,2.6,1.1,3.9c0.7,2.9,0.3,5.9,0.5,8.8c0.1,1.2,0.2,2.4,0.3,3.6
			c0.2,5.2-1.5,10.3-3.3,15.3c-1.1,3-1.3,6.5-1.8,9.7c-0.5,3-1,6.1-1.2,9.2c-0.2,2.8-0.3,5.9-2.1,8.1c1.6,1,3.3,2.1,5.1,2.5
			c2.2,0.3,4.4-0.1,6.3-1.2c1.9-1.1,3.6-2.6,5-4.3c-0.4-0.1-0.5-0.7-0.5-1.1c-0.5-5.8,1.6-11.4,2.5-17.1c0.4-2.9,0.5-5.8,0.2-8.7
			c-0.1-1.1-0.3-2.2-0.3-3.3c-0.2-5.7,2.5-11.2,2.4-16.9c0-2.7,1.4-5.3,2.1-7.9c0.6-2.3,0.6-4.7,0.6-7.1l0.1-18.7
			c0-2.5,0-5.1-0.8-7.5c-1-2.9,0.1-6.2,0.3-9.2C127.9,244.6,123,245.2,118,244.8z"/>
		<path class="st20" d="M134.3,191.1c1.9-3.9,4.3-7.6,7-11c0.6-0.7,1.1-1.4,1.5-2.1c1-1.7,1.3-3.7,1.9-5.6c1.7-5.2,6-9.4,7.1-14.8
			c0.4-2,1.6-3.6,2.5-5.5c0.6-1.2,1.2-2.5,2.4-3.2c1.5-0.9,3.5-0.5,4.8,0.7c0.6,0.6,1,1.4,1.3,2.2c0.3,0.8,0.3,1.7,0.2,2.6
			c-0.1,0.8-0.4,1.5-0.9,2.2c-0.7,0.7-1.6,1.1-2.5,1.5c-2.3,1.2-4,3.2-4.9,5.6c-1.5,4.4-1.7,9.1-3.6,13.3c-1.9,4.2-4.2,8.3-5.9,12.7
			c-0.9,2.5-1.7,5-3.1,7.3c-1.4,2.3-3.6,4.2-6.2,4.5c0-1.6-0.3-3.3-0.8-4.8C134.5,194.9,133.4,192.8,134.3,191.1z"/>
		<path class="st20" d="M106,194.5c0.1-3.2-0.4-6.4-1.5-9.5c-0.4-1.2-0.9-2.3-0.9-3.6c0.1-1.1,0.6-2.2,1.1-3.2
			c1.7-3.6,2.9-7.4,4.1-11.2l2.3-7.1c0.7-0.5,1.4-1.2,2-1.9c1.2-1.4,2-3.1,2.3-4.9c0.1-0.9,0.1-1.8-0.1-2.7
			c-0.2-0.9-0.6-1.7-1.2-2.5c-0.2-0.4-0.6-0.7-0.9-0.9c-0.4-0.2-0.8-0.4-1.2-0.4c-0.4,0-0.8,0.1-1.1,0.2c-0.3,0.2-0.7,0.4-0.9,0.7
			c-0.8,0.9-1.3,1.8-1.7,2.9c-0.7,1.8-1.5,3.6-1.4,5.5c0.1,1.6,0.7,3.3-0.3,4.6c-3,4.2-5.3,9-7.7,13.6c-0.6,1.1-1.1,2.2-1.6,3.4
			c-0.6,1.9-0.9,3.9-0.8,5.9c0,3.7,0.5,7.5,1,11.2c0.3,2.3,0.7,4.8,2.5,6.4C101.9,198.6,103.7,196.3,106,194.5z"/>
		<path class="st20" d="M117.6,196.3c5.2,0,9.5-4.2,9.5-9.5s-4.2-9.5-9.5-9.5s-9.5,4.2-9.5,9.5S112.4,196.3,117.6,196.3z"/>
		<path class="st20" d="M113,196.8c-0.2,1.7-1.1,3.2-2,4.7c-0.5,0.9-1.2,1.9-2.3,2c2.7,1.4,5.6,2.6,8.6,3.5c1,0.3,2.1,0.5,3.1,0.5
			c0.9-0.1,1.8-0.3,2.6-0.7c1.8-0.8,3.4-2,4.7-3.5c1.3-1.5,2.2-3.3,2.7-5.2c-1.2,0-2.4-0.1-3.5-0.3c-0.6-0.1-1.3-0.3-1.7-0.8
			c-0.3-0.5-0.4-1-0.4-1.5c0-1.6,0-3.2,0-4.7c-2.3-0.1-4.7,0.1-6.9,0.8c-0.9,0.3-1.8,0.7-2.8,0.9c-0.6,0.1-2.2,0-2.6,0.3
			C112,193.3,113.2,195.6,113,196.8z"/>
		<path class="st10" d="M117.2,202.5c-0.1-1.2-0.6-2.4-1.4-3.4c-0.8-0.9-1.9-1.6-3.1-1.9c-1-0.2-2-0.2-2.9-0.7
			c-1.5-0.8-1.9-2.9-3.4-3.8c-1.4-0.9-3.5-0.4-4.7,0.8c-1.2,1.2-1.9,2.9-2.4,4.5c-0.8,2.2-1.2,4.6-1.2,6.9c0,0.4,0,0.9,0.2,1.3
			c0.3,0.5,0.6,0.9,1,1.3c0.5,0.6,0.9,1.3,1.2,2.1c0.2,0.8,0.3,1.6,0.2,2.4c-0.1,1.5,0,3,0.4,4.5c0.9,4,1.8,8,2.6,12.1
			c0.2,0.7,0.2,1.5,0.2,2.3c-0.1,1.1-0.8,2.1-0.6,3.2c0.1,0.5,0.2,1,0.3,1.6c0,0.4-0.1,0.8-0.3,1.2c-1,3-3.8,9.9-3.8,13.1
			c4.9-1.2,12-1.5,17-1.5c1.4,0,2.8,0,4.1,0.2c3.3,0.4,6.7,1.3,9.9,0.4c3-0.8,5.6-3.2,8.7-2.9c0.7-1.7-0.1-7.6-0.7-9.3
			c-2.4-6.9-2.9-14.4-1.4-21.6c0.6-2.6-0.2-5.3,0.4-7.9c0.1-0.6,0.3-1.2,0.7-1.7c0.2-0.3,0.4-0.5,0.7-0.6c0.3-0.1,0.6-0.2,0.9-0.2
			c0.1-4.1-0.3-8.2-1.1-12.3c-0.3-1.4-0.9-3.1-2.4-3.4c-1.3-0.2-2.4,0.9-3.4,1.7c-1.1,0.8-2.3,1.4-3.6,1.7c-0.5,0.1-1,0.2-1.5,0.5
			c-0.6,0.5-0.7,1.5-1.2,2.1c-0.9,1.1-2.9,1-3.6,2.3c-0.1,0.4-0.3,0.8-0.3,1.2c-0.3,0.8-0.8,1.4-1.5,1.9
			C119.8,201.5,118.6,202.2,117.2,202.5z"/>
		<path class="st21" d="M125.3,176.8c0.2-0.6,0.1-1.4-0.4-1.8c-0.3-0.2-0.6-0.3-0.8-0.5c-0.4-0.3-0.7-0.7-0.9-1.2
			c-0.7-1-1.7-1.6-2.8-1.9c-1.1-0.3-2.3-0.2-3.4,0.4c-1.6,0.9-2.6,2.6-4.1,3.7c-0.7,0.6-1.6,1-2.4,1.6c-1.5,1.3-2.6,3-3,4.9
			c-0.5,1.9-0.8,3.9-0.8,5.8c-0.1,0.6-0.1,1.2,0.1,1.8c0.1,0.5,0.4,0.9,0.7,1.3c1.5,2.3,3.5,4.4,6,5.5c2.5,1.2,5.5,1.4,8,0.1
			c0.2-0.1,0.5-0.3,0.6-0.5c0.1-0.3,0.2-0.7,0.1-1.1c-0.1-1.4,0.1-2.8,0.8-4c0.5-0.9,1.1-1.7,1.5-2.6c0.3-1.1,0.5-2.2,0.4-3.3
			C124.8,182.4,124.6,179.5,125.3,176.8z"/>
		<path class="st10" d="M153,118.6h-23.3v23.3H153V118.6z"/>
		<path class="st20" d="M144.5,138.4c-0.3,0.7-0.9,1.2-1.6,1.4c-0.4,0.1-0.8,0.2-1.3,0.2c-0.5,0-0.9,0-1.4-0.2
			c-0.6-0.2-1.1-0.6-1.4-1.2c-0.3-0.5-0.6-1.1-0.8-1.7c-0.1-0.3-0.2-0.6-0.2-0.9c0.2,0,0.4-0.1,0.5-0.2c0.2-0.1,0.3-0.2,0.4-0.3
			c0.1-0.1,0.1-0.3,0.1-0.5c0-0.2,0-0.3-0.1-0.5c0-0.1-0.1-0.2-0.1-0.3c-0.1-0.2-0.3-0.6-0.1-0.7c0.2-0.2,0.5-0.2,0.7-0.2
			c0.4-0.3,0.9-0.5,1.4-0.6c0.4-0.1,0.9,0,1.3,0.1c0.1,0,0.1,0,0.2,0.1c0.1,0,0.1,0.1,0.1,0.2c0.1,0.3,0.2,0.7,0.3,1
			c0.1,0.3,0.3,0.6,0.5,0.9c0.2,0.2,0.4,0.3,0.7,0.4l0.6,0.3c0.1,0,0.2,0.1,0.3,0.2c0.1,0.1,0.1,0.2,0.1,0.4
			C144.9,137,144.8,137.8,144.5,138.4z"/>
		<path class="st4" d="M142.6,134.2c-0.5,0.5-1.1,0.8-1.8,0.9c-0.7,0.1-1.4,0-2-0.4c0-0.1-0.1-0.2-0.1-0.3c-0.1-0.2-0.3-0.6-0.1-0.7
			c0.2-0.2,0.5-0.2,0.7-0.2c0.4-0.3,0.9-0.5,1.4-0.6c0.4-0.1,0.9,0,1.3,0.1c0.1,0,0.1,0,0.2,0.1c0.1,0,0.1,0.1,0.1,0.2
			C142.4,133.5,142.5,133.9,142.6,134.2z"/>
		<path class="st20" d="M140.3,135c1.7,0,3.2-1.4,3.2-3.2c0-1.7-1.4-3.2-3.2-3.2c-1.7,0-3.2,1.4-3.2,3.2
			C137.1,133.6,138.6,135,140.3,135z"/>
		<path class="st22" d="M149.9,141.9H135c-0.5-1-0.9-2-1.3-3.1c0-0.2,0.1-0.5,0.3-0.7c0.1-0.1,0.2-0.2,0.3-0.2
			c0.1-0.1,0.2-0.1,0.3-0.1c0.1,0,0.3,0.1,0.4,0c0.1-0.1,0.1-0.2,0.1-0.2c0.1-0.1,0.2-0.1,0.4-0.1c0.1,0,0.3,0,0.4-0.1
			c0.1-0.1,0.2-0.2,0.3-0.3c0-0.1,0.1-0.2,0.2-0.2c0.1-0.1,0.2-0.1,0.4-0.1c0.4-0.1,0.6-0.5,0.9-0.7c0.1-0.1,0.2-0.1,0.3-0.2
			c0.1,0,0.2,0,0.3,0c0,0,0.1,0.1,0.1,0.1c0.1,0.1,0.1,0.2,0.2,0.4c0.2,0.8,0.6,1.4,1.2,1.9c0.3,0.2,0.7,0.4,1.1,0.5
			c0.4,0.1,0.8,0.1,1.2,0c0.4-0.1,0.8-0.3,1.1-0.5c0.3-0.3,0.6-0.6,0.7-0.9c0.2-0.6,0.3-1.1,0.4-1.7c0,0,0-0.1,0-0.1
			c0.2,0,0.4-0.1,0.6,0c0.2,0,0.4,0.1,0.5,0.2c0.3,0.2,0.6,0.4,1,0.6c0.4,0.2,0.9,0.2,1.2,0.5c0.1,0.1,0.2,0.3,0.4,0.4
			c0.1,0,0.2,0.1,0.3,0.1c0.3,0.1,0.5,0.2,0.7,0.4c0.2,0.2,0.4,0.4,0.5,0.6c0.3,0.7,0.5,1.5,0.6,2.3L149.9,141.9z"/>
		<path class="st19" d="M138.1,126.7c-0.2,0.2-0.4,0.4-0.6,0.6c-0.3,0.4-0.6,0.8-1.1,1.1c-0.2,0.1-0.4,0.2-0.5,0.3
			c-0.1,0.1-0.1,0.2-0.1,0.4c-0.1,0.4-0.1,0.9-0.1,1.3c0,0.2,0,0.5,0.1,0.7c0.1,0.2,0.3,0.4,0.3,0.6c0,0.2,0,0.3-0.1,0.5
			c0,0.1,0,0.2,0,0.3c0,0.1,0.1,0.2,0.2,0.2c0.1,0,0.2,0,0.3,0.1c0.5,0.1,0.6,0.6,0.7,1.1c0.2,0,0.2-0.2,0.3-0.3l0.5-2.1
			c0.1-0.2,0.1-0.5,0.4-0.6c0.2,0,0.3,0,0.5,0c0.6,0.1,1.2-0.4,1.8-0.6c0.2,0,0.4,0,0.6,0c0.5,0,1,0.2,1.2,0.7c0,0.1,0,0.2,0.1,0.2
			c0.1,0,0.1,0,0.2,0c0.3,0,0.5,0.3,0.6,0.6l0.3,1c0.1,0.2,0.1,0.3,0.3,0.4c0.1,0,0.2,0,0.2-0.1c0.1-0.1,0.1-0.1,0.1-0.2
			c0-0.2,0-0.3-0.1-0.5c-0.2-0.7,0.1-1.4,0.2-2c0.1-0.7,0.2-1.5-0.3-2c-0.2-0.2-0.4-0.3-0.6-0.5c-0.2-0.2-0.2-0.4-0.4-0.6
			c-0.6-0.5-1.4-0.9-2.2-1C139.8,126.1,138.9,126.3,138.1,126.7z"/>
		<g class="st23">
			<path class="st4" d="M143.8,132.5c-0.2,0-0.3-0.2-0.3-0.4l-0.3-1c-0.1-0.3-0.3-0.6-0.6-0.6c-0.1,0-0.1,0-0.2,0
				c-0.1,0-0.1-0.1-0.1-0.2c-0.1-0.5-0.7-0.7-1.2-0.7c-0.2,0-0.4,0-0.6,0c-0.6,0.1-1.1,0.6-1.8,0.6c-0.2,0-0.3,0-0.5,0
				c-0.2,0.1-0.3,0.3-0.4,0.6c-0.2,0.7-0.3,1.4-0.5,2.1c0,0.1-0.1,0.3-0.3,0.3c-0.1-0.5-0.2-1-0.7-1.1c-0.1,0-0.2,0-0.3-0.1
				c-0.1,0-0.1-0.1-0.1-0.2c0,0.1,0,0.1,0,0.2c0,0.1,0,0.2,0,0.3c0,0.1,0.1,0.2,0.2,0.2c0.1,0,0.2,0,0.3,0.1
				c0.5,0.1,0.6,0.6,0.7,1.1c0.2,0,0.2-0.2,0.3-0.3c0.2-0.7,0.3-1.4,0.5-2.1c0.1-0.2,0.1-0.5,0.4-0.6c0.2,0,0.3,0,0.5,0
				c0.6,0.1,1.2-0.4,1.8-0.6c0.2,0,0.4,0,0.6,0c0.5,0,1,0.2,1.2,0.7c0,0.1,0,0.2,0.1,0.2c0.1,0,0.1,0,0.2,0c0.3,0,0.5,0.3,0.6,0.6
				l0.3,1c0.1,0.2,0.1,0.3,0.3,0.4c0.1,0,0.2,0,0.2-0.1c0.1-0.1,0.1-0.1,0.1-0.2c0-0.1,0-0.2,0-0.4c0,0-0.1,0.1-0.1,0.1
				C143.9,132.5,143.8,132.5,143.8,132.5z"/>
			<path class="st4" d="M136.1,131.2c0-0.2-0.2-0.4-0.3-0.6c-0.1-0.1-0.1-0.3-0.1-0.4c0,0.1,0,0.2,0,0.2c0,0.2,0,0.5,0.1,0.7
				c0.1,0.2,0.2,0.3,0.3,0.5C136.1,131.5,136.1,131.3,136.1,131.2z"/>
			<path class="st4" d="M144.2,129.7c-0.2,0.6-0.3,1.2-0.3,1.8c0.1-0.4,0.1-0.9,0.3-1.3c0.1-0.3,0.1-0.7,0.1-1
				C144.3,129.4,144.3,129.6,144.2,129.7z"/>
		</g>
		<path class="st22" d="M136.2,141.9h-3.5c0.2-1,0.4-1.9,0.8-2.8c0-0.1,0.1-0.2,0.2-0.2c0,0,0,0,0.1,0c0.1-0.1,0.3-0.1,0.4-0.2
			c0.1-0.1,0.1-0.2,0.2-0.2c0.4,0,0.8,0.1,1.2,0.2c0.1,0,0.2,0,0.3,0.1c0.2,0.1,0.4,0.3,0.5,0.6C136.5,140.1,136.3,141,136.2,141.9z
			"/>
	</g>
</g>
</svg>
